PathFileType	4	(X/Y/Z)	S01_0003_Gait_markers.trc
DataRate	CameraRate	NumFrames	NumMarkers	Units	OrigDataRate	OrigDataStartFrame	OrigNumFrames
250.000000	250.000000	4	54	mm	250.000000	78	314
Frame#	Time	HEAD_ANT			R_HEAD			L_HEAD			C7			R_BACK			L_BACK			STERNUM			R_ACROMION			R_HUM_PROX			R_HUM_ANT			R_HUM_POST			R_ELBOW_LAT			R_ELBOW_MED			R_FOREARM			R_WIRST_LAT			R_WRITS_MED			R_HAND			L_ACROMION			L_HUM_PROX			L_HUM_ANT			L_HUM_POST			L_ELBOW_LAT			L_ELBOW_MED			L_FOREARM			L_WRIST_LAT			L_WIRST_MED			L_HAND			R_ILIAC			SACRUM			L_ILIAC			R_GTROCH			R_THIGH__1			R_THIGH_2			R_THIGH_3			R_THIGH_4			R_SHANK_1			R_SHANK_2			R_SHANK_3			R_SHANK_4			R_HEEL			R_FOOT_LAT			R_FOOT_MED			L_GTROCH			L_THIGH_1			L_THIGH_2			L_THIGH_3			L_THIGH_4			L_SHANK_1			L_SHANK_2			L_SHANK_3			L_SHANK_4			L_HEEL			L_FOOT_LAT			L_FOOT_MED			
		X1	Y1	Z1	X2	Y2	Z2	X3	Y3	Z3	X4	Y4	Z4	X5	Y5	Z5	X6	Y6	Z6	X7	Y7	Z7	X8	Y8	Z8	X9	Y9	Z9	X10	Y10	Z10	X11	Y11	Z11	X12	Y12	Z12	X13	Y13	Z13	X14	Y14	Z14	X15	Y15	Z15	X16	Y16	Z16	X17	Y17	Z17	X18	Y18	Z18	X19	Y19	Z19	X20	Y20	Z20	X21	Y21	Z21	X22	Y22	Z22	X23	Y23	Z23	X24	Y24	Z24	X25	Y25	Z25	X26	Y26	Z26	X27	Y27	Z27	X28	Y28	Z28	X29	Y29	Z29	X30	Y30	Z30	X31	Y31	Z31	X32	Y32	Z32	X33	Y33	Z33	X34	Y34	Z34	X35	Y35	Z35	X36	Y36	Z36	X37	Y37	Z37	X38	Y38	Z38	X39	Y39	Z39	X40	Y40	Z40	X41	Y41	Z41	X42	Y42	Z42	X43	Y43	Z43	X44	Y44	Z44	X45	Y45	Z45	X46	Y46	Z46	X47	Y47	Z47	X48	Y48	Z48	X49	Y49	Z49	X50	Y50	Z50	X51	Y51	Z51	X52	Y52	Z52	X53	Y53	Z53	X54	Y54	Z54	

79	0.312	650.218994140625	1745.792724609375	-282.5288696289059	590.1464233398438	1695.015625	-206.9601593017574	590.2574462890625	1702.436645507812	-354.1842346191402	447.2496337890625	1530.928833007812	-287.396575927734	375.8187255859375	1334.141235351562	-219.6942596435544	376.2240295410156	1336.01611328125	-362.7234802246091	623.694091796875	1368.582641601562	-285.8563842773435	525.0379028320312	1479.834838867188	-114.4028091430661	498.1956176757812	1317.418823242188	-22.35144805908174	563.0977783203125	1234.01171875	-26.82316970825168	443.0787963867188	1231.279541015625	-6.94210863113376	494.0273132324219	1127.4853515625	-7.021749019622552	462.8651428222656	1124.307739257812	-84.08506774902318	603.058837890625	949.3577880859375	-17.58087539672831	640.8253173828125	886.1693725585938	-61.10216522216777	578.5911865234375	859.3458251953125	-16.67211341857891	653.7073364257812	797.0889892578125	-9.70882320404035	530.3697509765625	1487.69873046875	-455.3534240722653	511.9556884765625	1319.835083007813	-551.6766967773434	571.9262084960938	1237.862670898438	-544.8166503906248	452.4739990234375	1243.335815429688	-577.2887573242185	507.7072448730469	1137.537475585938	-580.200744628906	455.7803649902344	1136.929809570313	-525.307678222656	611.631591796875	961.0827026367189	-561.4503173828123	644.507080078125	901.4678344726564	-509.2425537109373	597.7789306640625	878.8532714843751	-571.1828613281248	675.566650390625	825.3903808593751	-558.808166503906	526.6463623046875	1085.039184570312	-118.5486907958982	393.9487609863281	1053.299438476562	-284.5003967285154	514.9004516601562	1075.743896484375	-460.9400939941404	478.8534851074219	933.66796875	-104.8211135864256	519.7427368164062	653.7338256835938	-132.149200439453	575.8709716796875	670.7286376953125	-128.8570556640624	581.8116455078125	570.09130859375	-165.7694854736327	517.5238037109375	574.01318359375	-154.5413665771483	494.1665954589844	347.8720092773438	-155.1193695068359	546.1047973632812	323.5227966308594	-175.1627197265624	534.1718139648438	240.2281494140626	-194.5678405761718	472.2389526367188	250.509506225586	-179.1737060546874	407.833740234375	49.34360504150396	-264.0653381347656	570.2374877929688	19.48874473571781	-178.6426086425781	626.5267944335938	29.17781066894538	-282.7459106445312	484.3598327636719	959.7332153320314	-467.2197265624998	633.5587768554688	689.8068847656251	-481.4058227539061	576.1558837890625	700.0875244140626	-492.1938171386717	583.6541748046875	594.6699218750001	-475.0477294921874	646.0608520507812	608.7712402343751	-470.9865112304686	495.7392883300781	372.5586547851564	-465.9105224609374	440.1590576171875	395.3553161621095	-461.1008300781249	382.0770568847656	332.078094482422	-442.9333496093749	433.6628112792969	293.4109802246095	-442.8796386718749	236.9730529785156	217.9317932128907	-362.1001892089843	338.519287109375	83.25663757324229	-444.8659057617188	378.6621704101562	68.47555541992196	-354.4953308105469	
80	0.316	655.7076416015625	1746.176513671875	-282.7831420898434	595.5491943359375	1695.603515625	-207.0862579345699	595.322509765625	1702.835083007812	-354.3445434570309	452.5767517089844	1531.390258789062	-287.2184448242184	381.4221801757812	1334.751220703125	-219.7502746582028	381.1131896972656	1336.415771484375	-362.5417175292966	629.0055541992188	1369.162963867188	-286.6493530273435	530.7785034179688	1480.445678710938	-114.4780502319333	504.4630432128906	1317.923217773438	-22.06383705139131	569.5406494140625	1234.78564453125	-26.8450622558591	449.6179504394531	1231.865234375	-6.291374683379853	500.9851379394531	1128.173217773438	-6.503457069396722	468.858154296875	1124.952514648438	-83.42964935302709	610.5758056640625	950.4600219726562	-17.82214546203592	648.3135986328125	887.5119018554688	-61.56076431274394	586.311767578125	860.4268798828125	-16.71870803832989	661.8111572265625	798.4338989257812	-10.06326484680158	535.3712768554688	1488.065063476562	-455.4665527343747	516.5326538085938	1320.476684570313	-551.9016723632809	576.213623046875	1238.3173828125	-545.3272705078123	456.6879577636719	1243.953979492188	-577.3254394531248	511.7067260742188	1137.993530273438	-580.4718017578123	460.0415344238281	1137.400634765625	-525.560607910156	615.203125	961.5785522460939	-562.4506835937498	648.59423828125	901.7828369140626	-510.4635620117185	601.4490356445312	879.3049926757814	-571.8020019531248	679.1879272460938	825.7487182617189	-560.0004272460935	531.9866943359375	1084.99560546875	-118.4614105224607	399.49560546875	1053.755615234375	-283.816711425781	520.2474975585938	1076.62353515625	-460.5010681152341	483.718994140625	934.1810302734375	-104.9277877807615	522.0819702148438	654.1563110351562	-132.2056427001952	578.4026489257812	670.76416015625	-128.4524993896483	583.70263671875	570.158447265625	-165.3804779052733	519.3636474609375	574.4832763671875	-154.2921905517577	494.9018249511719	348.2662963867188	-154.9910888671874	546.9060668945312	323.7937622070313	-174.9456024169921	534.638671875	240.5165557861329	-194.5643463134765	472.7436828613281	250.8374176025391	-179.2600708007812	409.8775634765625	50.65591430664068	-263.8205261230469	570.2723388671875	19.45811462402348	-178.7075500488281	626.6343383789062	29.15650558471686	-282.6788635253906	489.3773193359375	960.6689453125001	-467.4109191894529	641.2656860351562	691.5046386718751	-481.2522888183592	583.72314453125	701.3798828125001	-492.3059692382811	592.1461181640625	595.8781738281251	-474.9798583984374	654.3302001953125	610.7893676757814	-470.5964355468749	506.8308715820312	372.0706787109376	-465.4698791503906	451.1447448730469	394.1631774902345	-461.1415100097655	393.357666015625	330.3917236328126	-442.6577453613281	446.0229797363281	292.1438293457032	-442.3964233398437	250.0831604003906	213.2863006591798	-361.9296569824218	355.0826721191406	81.16823577880869	-444.6359558105469	398.6524658203125	67.3710479736329	-355.3165893554688	
81	0.32	661.1439208984375	1746.687866210938	-283.0035705566402	601.0374145507812	1696.077026367188	-207.1161651611324	600.741943359375	1703.238891601562	-354.4266662597652	457.9675903320312	1531.843383789062	-287.1770019531247	386.9058837890625	1335.28857421875	-219.0018463134763	386.2889404296875	1337.089477539062	-362.5875244140622	634.33544921875	1369.60400390625	-286.6831054687497	536.537353515625	1481.002807617188	-114.4623947143551	510.872314453125	1318.561767578125	-21.66156387329072	575.972900390625	1235.52685546875	-26.77640533447238	456.193115234375	1232.535888671875	-5.631694793700898	507.0909423828125	1128.936279296875	-6.039403915405023	475.2399597167969	1125.442749023438	-82.94844055175756	617.9081420898438	951.611572265625	-17.92067337036112	655.9259643554688	888.8433227539062	-61.95269012451152	594.1767578125	861.3440551757812	-16.75501823425274	670.0533447265625	799.89501953125	-10.44378089904767	540.428955078125	1488.517578125	-455.4204711914059	520.9884643554688	1320.98583984375	-551.8727416992184	580.4634399414062	1238.757934570313	-545.517639160156	460.8645629882812	1244.563110351563	-577.3140869140623	517.0081787109375	1137.84375	-579.9530029296873	464.1063232421875	1138.074829101563	-525.633605957031	618.901611328125	961.8744506835939	-563.278625488281	652.5436401367188	902.0223388671876	-511.256652832031	604.9990844726562	879.6409912109376	-572.6640624999998	682.69482421875	826.0360717773439	-561.2252807617185	534.3417358398438	1084.635131835938	-117.515571594238	404.4497680664062	1054.367431640625	-283.5895385742185	525.5811767578125	1077.630004882812	-460.2304382324216	488.5272216796875	934.7227783203125	-104.9065246582029	524.4755859375	654.6884765625	-131.7411041259764	580.91064453125	670.8170776367188	-128.2741241455077	585.2123413085938	570.1973876953125	-166.2063446044921	521.0748291015625	574.8587646484375	-154.5531616210936	495.6553344726562	348.6560363769532	-154.9307250976562	547.6028442382812	324.1228942871094	-174.7394256591796	535.1568603515625	240.9088592529297	-194.4425506591796	473.3210144042969	251.2047576904297	-179.2719268798828	408.1196594238281	51.38075256347662	-263.5155639648438	570.290283203125	19.46154403686527	-178.7662200927734	626.7617797851562	29.17780303955085	-282.6556396484375	495.1937866210938	961.5975952148439	-467.2768554687498	648.9466552734375	693.0593872070314	-481.0122985839842	591.43359375	702.3637695312501	-492.3383789062498	600.7607421875	597.1360473632814	-474.9360046386718	662.6848754882812	612.5228271484376	-470.2071533203124	518.7674560546875	371.4511108398439	-465.2854003906249	461.8913269042969	393.077606201172	-460.9262695312499	405.4136047363281	328.0843200683595	-442.3348999023437	458.3467407226562	290.7311096191407	-441.9521179199218	263.3078918457031	208.4840698242188	-361.5891723632812	371.7862854003906	78.9056396484376	-444.2868041992188	412.8883972167969	65.93521118164071	-354.1668701171875	
82	0.324	666.5497436523438	1747.089111328125	-283.2778320312496	606.4588012695312	1696.542114257812	-207.275238037109	606.2124633789062	1703.638671875	-354.6676940917965	463.2525329589844	1532.190185546875	-287.0290832519528	392.0487365722656	1336.093139648438	-217.8199462890622	391.4839782714844	1337.793334960938	-362.499816894531	639.6464233398438	1369.988403320312	-286.7276306152341	542.2974243164062	1481.510375976562	-114.4625549316403	517.220703125	1319.193115234375	-21.36614227294893	582.4689331054688	1236.144287109375	-26.87633705139133	462.6429748535156	1233.112060546875	-5.127559661864961	514.0390625	1129.457763671875	-5.616695880889642	481.58740234375	1125.909057617188	-82.55041503906224	625.3363647460938	952.75634765625	-18.05441284179666	663.5358276367188	890.2108154296875	-62.33139419555644	602.1793212890625	862.3694458007812	-17.04435539245586	678.2487182617188	801.2406616210938	-11.05555725097638	545.4249267578125	1488.929809570312	-455.5050964355465	525.1600952148438	1321.543823242188	-552.0203247070309	584.7009887695312	1239.04736328125	-545.9477539062498	465.6041259765625	1245.011840820313	-577.6766357421873	519.8745727539062	1138.99755859375	-581.0268554687498	468.4277648925781	1138.708740234375	-525.5668945312498	622.6665649414062	962.2938842773439	-564.134338378906	656.3831176757812	902.2596435546876	-512.273742675781	608.5117797851562	879.9125366210939	-573.304748535156	686.2335815429688	826.3057861328126	-562.2860107421873	539.8636474609375	1084.731567382812	-117.1970062255857	409.220703125	1055.077880859375	-284.1613159179685	531.1224975585938	1078.353881835938	-459.9229431152341	493.1524353027344	935.2044677734375	-104.9751739501951	526.9229736328125	655.1528930664062	-131.4737701416014	583.5399169921875	670.887939453125	-127.8666610717772	587.1573486328125	570.1127319335938	-165.7743072509764	523.031494140625	575.3292236328125	-154.3186492919921	496.3925170898438	349.0434570312501	-154.8661499023437	548.3018798828125	324.4149475097657	-174.5928955078124	535.6136474609375	241.1785583496094	-194.4248809814453	473.8251037597656	251.6222686767578	-179.2950439453124	408.2731628417969	52.03288269042974	-263.6252746582031	570.3278198242188	19.45109176635746	-178.7776947021484	626.8419189453125	29.19050979614264	-282.5750427246094	500.8635559082031	962.2135620117189	-467.1477966308591	656.7261352539062	694.7225952148439	-480.8242187499998	599.1527099609375	703.4847412109376	-492.432159423828	609.14453125	598.3037719726564	-474.8617858886718	670.8641967773438	614.3162231445314	-469.7300720214843	530.0501708984375	370.8271484375001	-464.6800231933593	472.7174377441406	391.5706481933595	-460.7411193847655	417.3056945800781	325.8872985839845	-442.6582336425781	470.924560546875	289.4212036132814	-441.4728088378906	276.8996276855469	203.6150817871095	-361.3371276855468	388.4944763183594	76.75833892822276	-443.9725036621094	432.5856628417969	65.15659332275399	-355.2141723632812	
